# Blender v2.91.2 OBJ File: ''
# www.blender.org
mtllib room_walls.mtl
o Plane.001
v 1.000000 0.300000 1.000000
v 1.000000 -0.000000 1.000000
v -1.000000 -0.000000 1.000000
v -1.000000 0.300000 1.000000
v -1.000000 0.300000 1.000000
v -1.000000 -0.000000 1.000000
v -1.000000 0.000000 -1.000000
v -1.000000 0.300000 -1.000000
vt 0.000000 0.000000
vt 1.000000 0.000000
vt 1.000000 1.000000
vt 0.000000 1.000000
vt 0.000000 0.000000
vt 1.000000 0.000000
vt 1.000000 1.000000
vt 0.000000 1.000000
vn 0.0000 0.0000 -1.0000
vn 1.0000 0.0000 0.0000
usemtl None
s 1
f 1/1/1 2/2/1 3/3/1 4/4/1
f 5/5/2 6/6/2 7/7/2 8/8/2
